<svg version="1.1" viewBox="0.0 0.0 1000.0 1000.0" fill="none" stroke="none" stroke-linecap="square" stroke-miterlimit="10" xmlns:xlink="http://www.w3.org/1999/xlink" xmlns="http://www.w3.org/2000/svg"><clipPath id="p.0"><path d="m0 0l1000.0 0l0 1000.0l-1000.0 0l0 -1000.0z" clip-rule="nonzero"/></clipPath><g clip-path="url(#p.0)"><path fill="#000000" fill-opacity="0.0" d="m0 0l1000.0 0l0 1000.0l-1000.0 0z" fill-rule="evenodd"/><path fill="#97a2a2" d="m1.4593176E-4 500.0l0 0c0 -276.1424 223.85762 -500.0 500.0 -500.0l0 0c132.60825 0 259.7852 52.67842 353.55338 146.44661c93.76819 93.76819 146.4466 220.94514 146.4466 353.5534l0 0c0 276.1424 -223.8576 500.0 -499.99997 500.0l0 0c-276.1424 0 -500.0 -223.8576 -500.0 -500.0z" fill-rule="evenodd"/><path fill="#ffffff" d="m500.69263 234.37054c-48.220276 0 -87.01822 12.945694 -116.3938 38.837097c-29.296387 25.891418 -46.91382 63.18454 -52.852295 111.879364l65.9169 7.838684c5.7009277 -36.342987 17.696625 -63.065765 35.98706 -80.168335c18.290466 -17.10257 41.094147 -25.65387 68.41107 -25.65387c28.26706 0 52.13968 9.461853 71.61783 28.385529c19.47815 18.844513 29.217224 40.737396 29.217224 65.67865c0 13.7771 -3.3255615 26.48526 -9.976624 38.12451c-6.651062 11.639252 -21.101318 27.277039 -43.35077 46.91333c-22.170227 19.557098 -37.531067 34.442688 -46.082428 44.656708c-11.639404 14.014618 -20.072021 27.910492 -25.297852 41.68753c-7.1261597 18.290283 -10.6892395 40.02478 -10.6892395 65.20361c0 4.275635 0.118774414 10.689087 0.35632324 19.240356l61.641174 0c0.47509766 -25.65387 2.2566528 -44.18164 5.3446655 -55.583374c3.0879517 -11.401672 7.838745 -21.496948 14.252258 -30.285828c6.413574 -8.788818 20.072021 -22.447083 40.975403 -40.974884c31.117493 -27.554169 52.020874 -50.951447 62.710144 -70.19183c10.689209 -19.240417 16.033813 -40.26233 16.033813 -63.065765c0 -39.43094 -15.202454 -73.04227 -45.60736 -100.833954c-30.404907 -27.791687 -71.14276 -41.68753 -122.2135 -41.68753zm-37.05597 458.20654l0 73.0423l73.04303 0l0 -73.0423z" fill-rule="evenodd"/><path stroke="#000000" stroke-width="8.0" stroke-linejoin="round" stroke-linecap="butt" d="m500.69263 234.37054c-48.220276 0 -87.01822 12.945694 -116.3938 38.837097c-29.296387 25.891418 -46.91382 63.18454 -52.852295 111.879364l65.9169 7.838684c5.7009277 -36.342987 17.696625 -63.065765 35.98706 -80.168335c18.290466 -17.10257 41.094147 -25.65387 68.41107 -25.65387c28.26706 0 52.13968 9.461853 71.61783 28.385529c19.47815 18.844513 29.217224 40.737396 29.217224 65.67865c0 13.7771 -3.3255615 26.48526 -9.976624 38.12451c-6.651062 11.639252 -21.101318 27.277039 -43.35077 46.91333c-22.170227 19.557098 -37.531067 34.442688 -46.082428 44.656708c-11.639404 14.014618 -20.072021 27.910492 -25.297852 41.68753c-7.1261597 18.290283 -10.6892395 40.02478 -10.6892395 65.20361c0 4.275635 0.118774414 10.689087 0.35632324 19.240356l61.641174 0c0.47509766 -25.65387 2.2566528 -44.18164 5.3446655 -55.583374c3.0879517 -11.401672 7.838745 -21.496948 14.252258 -30.285828c6.413574 -8.788818 20.072021 -22.447083 40.975403 -40.974884c31.117493 -27.554169 52.020874 -50.951447 62.710144 -70.19183c10.689209 -19.240417 16.033813 -40.26233 16.033813 -63.065765c0 -39.43094 -15.202454 -73.04227 -45.60736 -100.833954c-30.404907 -27.791687 -71.14276 -41.68753 -122.2135 -41.68753zm-37.05597 458.20654l0 73.0423l73.04303 0l0 -73.0423z" fill-rule="evenodd"/></g></svg>