<svg version="1.1" viewBox="0.0 0.0 1000.0 1000.0" fill="none" stroke="none" stroke-linecap="square" stroke-miterlimit="10" xmlns:xlink="http://www.w3.org/1999/xlink" xmlns="http://www.w3.org/2000/svg"><clipPath id="p.0"><path d="m0 0l1000.0 0l0 1000.0l-1000.0 0l0 -1000.0z" clip-rule="nonzero"/></clipPath><g clip-path="url(#p.0)"><path fill="#000000" fill-opacity="0.0" d="m0 0l1000.0 0l0 1000.0l-1000.0 0z" fill-rule="evenodd"/><path fill="#000000" d="m150.8127 88.685326l0 0c8.578705 -8.578705 22.487534 -8.578705 31.066238 0l729.43774 729.43774c4.119629 4.119629 6.434021 9.707031 6.434021 15.533081c0 5.82605 -2.314392 11.413513 -6.434021 15.533142l-62.130615 62.130615c-8.578735 8.578674 -22.487549 8.578674 -31.066284 0l-729.4377 -729.43774c-8.578705 -8.578705 -8.578705 -22.487534 0 -31.066238z" fill-rule="evenodd"/><path fill="#000000" d="m911.31665 150.81593l0 0c8.578674 8.578705 8.578674 22.487534 0 31.066238l-729.43774 729.43774c-4.119644 4.119629 -9.707077 6.434021 -15.533127 6.434021c-5.82605 0 -11.413483 -2.314392 -15.533112 -6.434021l-62.130615 -62.130615c-8.578705 -8.578735 -8.578705 -22.487549 0 -31.066223l729.4377 -729.43774c8.578735 -8.578705 22.487549 -8.578705 31.066284 0z" fill-rule="evenodd"/></g></svg>