<svg version="1.1" viewBox="0.0 0.0 1000.0 1000.0" fill="none" stroke="none" stroke-linecap="square" stroke-miterlimit="10" xmlns:xlink="http://www.w3.org/1999/xlink" xmlns="http://www.w3.org/2000/svg"><clipPath id="p.0"><path d="m0 0l1000.0 0l0 1000.0l-1000.0 0l0 -1000.0z" clip-rule="nonzero"/></clipPath><g clip-path="url(#p.0)"><path fill="#000000" fill-opacity="0.0" d="m0 0l1000.0 0l0 1000.0l-1000.0 0z" fill-rule="evenodd"/><path fill="#97a2a2" d="m0 500.0l0 0c0 -276.1424 223.85762 -500.0 500.0 -500.0l0 0c132.60822 0 259.78522 52.67842 353.5534 146.44661c93.76819 93.76819 146.4466 220.94514 146.4466 353.5534l0 0c0 276.1424 -223.8576 500.0 -500.0 500.0l0 0c-276.1424 0 -500.0 -223.8576 -500.0 -500.0z" fill-rule="evenodd"/><path fill="#ffffff" d="m267.81003 209.41483l464.34647 0l0 503.77274l-77.39264 77.39264l-386.95383 0z" fill-rule="evenodd"/><path fill="#cbcbcb" d="m654.76385 790.5802l15.478516 -61.914124l61.914124 -15.478516z" fill-rule="evenodd"/><path fill="#000000" fill-opacity="0.0" d="m654.76385 790.5802l15.478516 -61.914124l61.914124 -15.478516l-77.39264 77.39264l-386.95383 0l0 -581.1654l464.34647 0l0 503.77274" fill-rule="evenodd"/><path stroke="#000000" stroke-width="8.0" stroke-linejoin="round" stroke-linecap="butt" d="m654.76385 790.5802l15.478516 -61.914124l61.914124 -15.478516l-77.39264 77.39264l-386.95383 0l0 -581.1654l464.34647 0l0 503.77274" fill-rule="evenodd"/></g></svg>