<svg version="1.1" viewBox="0.0 0.0 646.5669291338583 487.78740157480314" fill="none" stroke="none" stroke-linecap="square" stroke-miterlimit="10" xmlns:xlink="http://www.w3.org/1999/xlink" xmlns="http://www.w3.org/2000/svg"><clipPath id="p.0"><path d="m0 0l646.56696 0l0 487.7874l-646.56696 0l0 -487.7874z" clip-rule="nonzero"/></clipPath><g clip-path="url(#p.0)"><path fill="#000000" fill-opacity="0.0" d="m0 0l646.56696 0l0 487.7874l-646.56696 0z" fill-rule="evenodd"/><path fill="#000000" d="m197.51181 208.78952l0 0c-33.311035 -66.64816 -6.2859497 -147.68109 60.362213 -180.99213l0 0c32.005554 -15.996521 69.05487 -18.623703 102.99747 -7.3035927c33.942627 11.320108 61.99814 35.660225 77.99466 67.6658l0 0c33.311035 66.648155 6.2859497 147.68109 -60.362213 180.99213l0 0c-66.64816 33.311035 -147.68109 6.2859497 -180.99213 -60.362213z" fill-rule="evenodd"/><path stroke="#000000" stroke-width="24.0" stroke-linejoin="round" stroke-linecap="butt" d="m197.51181 208.78952l0 0c-33.311035 -66.64816 -6.2859497 -147.68109 60.362213 -180.99213l0 0c32.005554 -15.996521 69.05487 -18.623703 102.99747 -7.3035927c33.942627 11.320108 61.99814 35.660225 77.99466 67.6658l0 0c33.311035 66.648155 6.2859497 147.68109 -60.362213 180.99213l0 0c-66.64816 33.311035 -147.68109 6.2859497 -180.99213 -60.362213z" fill-rule="evenodd"/><path fill="#ffffff" d="m232.18898 191.45055l0 0c-23.735199 -47.49649 -4.47287 -105.24118 43.023605 -128.97638l0 0c22.808624 -11.398045 49.210938 -13.268566 73.39868 -5.2000694c24.187775 8.068497 44.179657 25.415077 55.577698 48.223694l0 0c23.735199 47.49649 4.47287 105.24118 -43.02362 128.97638l0 0c-47.49649 23.735184 -105.241165 4.47287 -128.97636 -43.02362z" fill-rule="evenodd"/><path fill="#000000" d="m386.06265 223.12598l130.55118 243.65353l-39.24411 21.007874l-130.55118 -243.65353z" fill-rule="evenodd"/></g></svg>