<svg version="1.1" viewBox="0.0 0.0 646.5669291338583 487.78740157480314" fill="none" stroke="none"
     stroke-linecap="square" stroke-miterlimit="10" xmlns:xlink="http://www.w3.org/1999/xlink"
     xmlns="http://www.w3.org/2000/svg">
    <clipPath id="p.0">
        <path d="m0 0l646.56696 0l0 487.7874l-646.56696 0l0 -487.7874z" clip-rule="nonzero"/>
    </clipPath>
    <g clip-path="url(#p.0)">
        <path fill="#000000" fill-opacity="0.0" d="m0 0l646.56696 0l0 487.7874l-646.56696 0z" fill-rule="evenodd"/>
        <path fill="#ffffff" d="m386.06396 222.76903l130.55115 243.65355l-39.24408 21.007874l-130.55118 -243.65355z"
              fill-rule="evenodd"/>
        <path fill="#ffffff"
              d="m170.42914 148.12073l0 0c0 -81.60767 66.1561 -147.76378 147.76376 -147.76378l0 0c39.189392 0 76.77371 15.5679245 104.48477 43.279007c27.71109 27.711082 43.279022 65.29538 43.279022 104.484764l0 0c0 81.6077 -66.1561 147.7638 -147.7638 147.7638l0 0c-81.607666 0 -147.76376 -66.1561 -147.76376 -147.7638zm50.337204 0l0 0c0 53.80722 43.61937 97.426575 97.42656 97.426575c53.80722 0 97.426575 -43.619354 97.426575 -97.426575l0 0c0 -53.807205 -43.619354 -97.42656 -97.426575 -97.42656l0 0c-53.80719 0 -97.42656 43.619358 -97.42656 97.42656z"
              fill-rule="evenodd"/>
    </g>
</svg>