<svg version="1.1" viewBox="0.0 0.0 1000.0 1000.0" fill="none" stroke="none" stroke-linecap="square" stroke-miterlimit="10" xmlns:xlink="http://www.w3.org/1999/xlink" xmlns="http://www.w3.org/2000/svg"><clipPath id="p.0"><path d="m0 0l1000.0 0l0 1000.0l-1000.0 0l0 -1000.0z" clip-rule="nonzero"/></clipPath><g clip-path="url(#p.0)"><path fill="#000000" fill-opacity="0.0" d="m0 0l1000.0 0l0 1000.0l-1000.0 0z" fill-rule="evenodd"/><path fill="#97a2a2" d="m0 500.01312l0 0c0 -276.1424 223.85762 -500.0 500.0 -500.0l0 0c132.60822 0 259.78522 52.67842 353.5534 146.44661c93.76819 93.76819 146.4466 220.94514 146.4466 353.5534l0 0c0 276.1424 -223.8576 500.0 -500.0 500.0l0 0c-276.1424 0 -500.0 -223.8576 -500.0 -500.0z" fill-rule="evenodd"/><path fill="#ffffff" d="m179.60497 218.13203l640.87335 0l0 300.8518l-640.87335 0z" fill-rule="evenodd"/><path stroke="#000000" stroke-width="8.0" stroke-linejoin="round" stroke-linecap="butt" d="m179.60497 218.13203l640.87335 0l0 300.8518l-640.87335 0z" fill-rule="evenodd"/><path fill="#ffffff" d="m267.85483 781.91455l24.65805 -98.6322l415.0575 0l24.658081 98.6322z" fill-rule="evenodd"/><path stroke="#000000" stroke-width="8.0" stroke-linejoin="round" stroke-linecap="butt" d="m267.85483 781.91455l24.65805 -98.6322l415.0575 0l24.658081 98.6322z" fill-rule="evenodd"/><path fill="#ffffff" d="m469.6025 518.99365l60.878265 0l0 87.54199l-60.878265 0z" fill-rule="evenodd"/><path stroke="#000000" stroke-width="8.0" stroke-linejoin="round" stroke-linecap="butt" d="m469.6025 518.99365l60.878265 0l0 87.54199l-60.878265 0z" fill-rule="evenodd"/><path fill="#ffffff" d="m363.30154 606.55475l273.4802 0l0 35.158386l-273.4802 0z" fill-rule="evenodd"/><path stroke="#000000" stroke-width="8.0" stroke-linejoin="round" stroke-linecap="butt" d="m363.30154 606.55475l273.4802 0l0 35.158386l-273.4802 0z" fill-rule="evenodd"/></g></svg>