<svg version="1.1" viewBox="0.0 0.0 1000.0 1000.0" fill="none" stroke="none" stroke-linecap="square" stroke-miterlimit="10" xmlns:xlink="http://www.w3.org/1999/xlink" xmlns="http://www.w3.org/2000/svg"><clipPath id="p.0"><path d="m0 0l1000.0 0l0 1000.0l-1000.0 0l0 -1000.0z" clip-rule="nonzero"/></clipPath><g clip-path="url(#p.0)"><path fill="#000000" fill-opacity="0.0" d="m0 0l1000.0 0l0 1000.0l-1000.0 0z" fill-rule="evenodd"/><path fill="#97a2a2" d="m3.2545933E-5 500.0l0 0c0 -276.1424 223.85762 -500.0 500.0 -500.0l0 0c132.60825 0 259.7852 52.67842 353.55338 146.44661c93.76819 93.76819 146.44666 220.94514 146.44666 353.5534l0 0c0 276.1424 -223.85767 500.0 -500.00003 500.0l0 0c-276.1424 0 -500.0 -223.8576 -500.0 -500.0z" fill-rule="evenodd"/><path fill="#ffffff" d="m288.2014 434.09326l423.52756 0l0 370.45667l-423.52756 0z" fill-rule="evenodd"/><path stroke="#000000" stroke-width="8.0" stroke-linejoin="round" stroke-linecap="butt" d="m288.2014 434.09326l423.52756 0l0 370.45667l-423.52756 0z" fill-rule="evenodd"/><path fill="#ffffff" d="m288.2014 222.07263l100.75589 0l0 286.4567l-100.75589 0z" fill-rule="evenodd"/><path stroke="#000000" stroke-width="8.0" stroke-linejoin="round" stroke-linecap="butt" d="m288.2014 222.07263l100.75589 0l0 286.4567l-100.75589 0z" fill-rule="evenodd"/><path fill="#ffffff" d="m179.5793 508.5393l320.42523 -313.13385l320.42517 313.13385z" fill-rule="evenodd"/><path stroke="#000000" stroke-width="8.0" stroke-linejoin="round" stroke-linecap="butt" d="m179.5793 508.5393l320.42523 -313.13385l320.42517 313.13385z" fill-rule="evenodd"/><path fill="#ffffff" d="m293.37604 466.50146l413.63782 0l0 132.62994l-413.63782 0z" fill-rule="evenodd"/></g></svg>