<svg version="1.1" viewBox="0.0 0.0 1000.0 1000.0" fill="none" stroke="none" stroke-linecap="square" stroke-miterlimit="10" xmlns:xlink="http://www.w3.org/1999/xlink" xmlns="http://www.w3.org/2000/svg"><clipPath id="p.0"><path d="m0 0l1000.0 0l0 1000.0l-1000.0 0l0 -1000.0z" clip-rule="nonzero"/></clipPath><g clip-path="url(#p.0)"><path fill="#000000" fill-opacity="0.0" d="m0 0l1000.0 0l0 1000.0l-1000.0 0z" fill-rule="evenodd"/><path fill="#97a2a2" d="m1.3097112E-4 500.0l0 0c0 -276.1424 223.85762 -500.0 500.0 -500.0l0 0c132.60828 0 259.78522 52.67842 353.5534 146.44661c93.76819 93.76819 146.4466 220.94514 146.4466 353.5534l0 0c0 276.1424 -223.8576 500.0 -500.0 500.0l0 0c-276.14236 0 -500.0 -223.8576 -500.0 -500.0z" fill-rule="evenodd"/><path fill="#ffffff" d="m789.1638 558.6803l0 0c0 73.23889 -128.41016 132.61072 -286.81204 132.61072q-143.40604 0 -286.81207 0q0 -66.30536 0 -132.61072l0 0c0 -73.23892 128.41013 -132.61078 286.81207 -132.61078l0 0c158.40189 0 286.81204 59.371857 286.81204 132.61078z" fill-rule="evenodd"/><path stroke="#000000" stroke-width="8.0" stroke-linejoin="round" stroke-linecap="butt" d="m789.1638 558.6803l0 0c0 73.23889 -128.41016 132.61072 -286.81204 132.61072q-143.40604 0 -286.81207 0q0 -66.30536 0 -132.61072l0 0c0 -73.23892 128.41013 -132.61078 286.81207 -132.61078l0 0c158.40189 0 286.81204 59.371857 286.81204 132.61078z" fill-rule="evenodd"/><path fill="#000000" d="m337.7125 604.17535l0 0c0 -11.924072 9.666412 -21.590515 21.590546 -21.590515l0 0c5.726166 0 11.217804 2.2747192 15.266815 6.3237305c4.049011 4.049011 6.3237 9.540649 6.3237 15.266785l0 0c0 11.924133 -9.666412 21.590576 -21.590515 21.590576l0 0c-11.924133 0 -21.590546 -9.666443 -21.590546 -21.590576z" fill-rule="evenodd"/><path stroke="#000000" stroke-width="8.0" stroke-linejoin="round" stroke-linecap="butt" d="m337.7125 604.17535l0 0c0 -11.924072 9.666412 -21.590515 21.590546 -21.590515l0 0c5.726166 0 11.217804 2.2747192 15.266815 6.3237305c4.049011 4.049011 6.3237 9.540649 6.3237 15.266785l0 0c0 11.924133 -9.666412 21.590576 -21.590515 21.590576l0 0c-11.924133 0 -21.590546 -9.666443 -21.590546 -21.590576z" fill-rule="evenodd"/><path fill="#ffffff" d="m212.66983 450.28818l0 0c0 -46.458466 37.66205 -84.120514 84.120514 -84.120514l0 0c22.31015 0 43.706543 8.862671 59.48221 24.638336c15.775665 15.775635 24.638336 37.172028 24.638336 59.482178l0 0c0 46.458496 -37.66205 84.120514 -84.120544 84.120514l0 0c-46.458466 0 -84.120514 -37.662018 -84.120514 -84.120514z" fill-rule="evenodd"/><path stroke="#000000" stroke-width="8.0" stroke-linejoin="round" stroke-linecap="butt" d="m212.66983 450.28818l0 0c0 -46.458466 37.66205 -84.120514 84.120514 -84.120514l0 0c22.31015 0 43.706543 8.862671 59.48221 24.638336c15.775665 15.775635 24.638336 37.172028 24.638336 59.482178l0 0c0 46.458496 -37.66205 84.120514 -84.120544 84.120514l0 0c-46.458466 0 -84.120514 -37.662018 -84.120514 -84.120514z" fill-rule="evenodd"/><path fill="#ffffff" d="m348.1327 487.51047l0 0c0 -46.458466 37.66205 -84.120514 84.120544 -84.120514l0 0c22.31015 0 43.706543 8.862671 59.482178 24.638336c15.775665 15.775665 24.638367 37.172028 24.638367 59.482178l0 0c0 46.458527 -37.66208 84.120514 -84.120544 84.120514l0 0c-46.458496 0 -84.120544 -37.661987 -84.120544 -84.120514z" fill-rule="evenodd"/><path stroke="#000000" stroke-width="8.0" stroke-linejoin="round" stroke-linecap="butt" d="m348.1327 487.51047l0 0c0 -46.458466 37.66205 -84.120514 84.120544 -84.120514l0 0c22.31015 0 43.706543 8.862671 59.482178 24.638336c15.775665 15.775665 24.638367 37.172028 24.638367 59.482178l0 0c0 46.458527 -37.66208 84.120514 -84.120544 84.120514l0 0c-46.458496 0 -84.120544 -37.661987 -84.120544 -84.120514z" fill-rule="evenodd"/><path fill="#000000" fill-opacity="0.0" d="m788.891 553.7568c52.35663 4.0561523 123.27356 -89.51184 89.45575 -129.69012c-58.84326 -69.91049 -298.2636 -93.56888 -228.07568 -152.07877" fill-rule="evenodd"/><path stroke="#000000" stroke-width="8.0" stroke-linejoin="round" stroke-linecap="butt" d="m788.891 553.7568c52.35663 4.0561523 123.27356 -89.51184 89.45575 -129.69012c-58.84326 -69.91049 -298.2636 -93.56888 -228.07568 -152.07877" fill-rule="evenodd"/><path fill="#ffffff" d="m377.93726 567.7266l0 0c0 -11.924072 26.094055 -21.590515 58.282684 -21.590515l0 0c32.18863 0 58.282654 9.666443 58.282654 21.590515l0 0c0 11.924133 -26.094025 21.590576 -58.282654 21.590576l0 0c-32.18863 0 -58.282684 -9.666443 -58.282684 -21.590576z" fill-rule="evenodd"/><path stroke="#ffffff" stroke-width="8.0" stroke-linejoin="round" stroke-linecap="butt" d="m377.93726 567.7266l0 0c0 -11.924072 26.094055 -21.590515 58.282684 -21.590515l0 0c32.18863 0 58.282654 9.666443 58.282654 21.590515l0 0c0 11.924133 -26.094025 21.590576 -58.282654 21.590576l0 0c-32.18863 0 -58.282684 -9.666443 -58.282684 -21.590576z" fill-rule="evenodd"/><path fill="#ffffff" d="m258.76453 531.0504l0 0c0 -11.924133 19.174347 -21.590546 42.827118 -21.590546l0 0c23.652802 0 42.82715 9.666412 42.82715 21.590546l0 0c0 11.924133 -19.174347 21.590515 -42.82715 21.590515l0 0c-23.652771 0 -42.827118 -9.666382 -42.827118 -21.590515z" fill-rule="evenodd"/><path stroke="#ffffff" stroke-width="8.0" stroke-linejoin="round" stroke-linecap="butt" d="m258.76453 531.0504l0 0c0 -11.924133 19.174347 -21.590546 42.827118 -21.590546l0 0c23.652802 0 42.82715 9.666412 42.82715 21.590546l0 0c0 11.924133 -19.174347 21.590515 -42.82715 21.590515l0 0c-23.652771 0 -42.827118 -9.666382 -42.827118 -21.590515z" fill-rule="evenodd"/><path fill="#ead1dc" d="m200.54324 670.1726l0 0c0 -14.986633 12.149048 -27.135681 27.13565 -27.135681l0 0c7.196823 0 14.098877 2.8589478 19.187805 7.947876c5.088928 5.088928 7.9478455 11.990967 7.9478455 19.187805l0 0c0 14.986572 -12.149048 27.13562 -27.13565 27.13562l0 0c-14.986603 0 -27.13565 -12.149048 -27.13565 -27.13562z" fill-rule="evenodd"/><path stroke="#000000" stroke-width="8.0" stroke-linejoin="round" stroke-linecap="butt" d="m200.54324 670.1726l0 0c0 -14.986633 12.149048 -27.135681 27.13565 -27.135681l0 0c7.196823 0 14.098877 2.8589478 19.187805 7.947876c5.088928 5.088928 7.9478455 11.990967 7.9478455 19.187805l0 0c0 14.986572 -12.149048 27.13562 -27.13565 27.13562l0 0c-14.986603 0 -27.13565 -12.149048 -27.13565 -27.13562z" fill-rule="evenodd"/><path fill="#000000" fill-opacity="0.0" d="m335.66537 661.0289c41.19467 14.488098 88.42673 26.396545 116.56183 54.2688" fill-rule="evenodd"/><path stroke="#000000" stroke-width="8.0" stroke-linejoin="round" stroke-linecap="butt" d="m335.66537 661.0289c41.19467 14.488098 88.42673 26.396545 116.56183 54.2688" fill-rule="evenodd"/><path fill="#000000" fill-opacity="0.0" d="m308.04788 673.9482c30.481354 16.914978 66.114105 34.10919 84.31723 54.07025" fill-rule="evenodd"/><path stroke="#000000" stroke-width="8.0" stroke-linejoin="round" stroke-linecap="butt" d="m308.04788 673.9482c30.481354 16.914978 66.114105 34.10919 84.31723 54.07025" fill-rule="evenodd"/><path fill="#000000" fill-opacity="0.0" d="m227.76439 595.47314c-37.078796 -23.07013 -75.922714 -52.4635 -115.27202 -56.97357" fill-rule="evenodd"/><path stroke="#000000" stroke-width="8.0" stroke-linejoin="round" stroke-linecap="butt" d="m227.76439 595.47314c-37.078796 -23.07013 -75.922714 -52.4635 -115.27202 -56.97357" fill-rule="evenodd"/><path fill="#000000" fill-opacity="0.0" d="m234.9662 625.10034c-32.26941 -13.193848 -67.98036 -30.231628 -94.94237 -31.940674" fill-rule="evenodd"/><path stroke="#000000" stroke-width="8.0" stroke-linejoin="round" stroke-linecap="butt" d="m234.9662 625.10034c-32.26941 -13.193848 -67.98036 -30.231628 -94.94237 -31.940674" fill-rule="evenodd"/><path fill="#000000" d="m258.76453 575.8491l0 0c0 -11.924133 9.666412 -21.590515 21.590546 -21.590515l0 0c5.726166 0 11.217804 2.2746582 15.266815 6.3236694c4.049011 4.049011 6.3237305 9.540649 6.3237305 15.266846l0 0c0 11.924133 -9.666443 21.590515 -21.590546 21.590515l0 0c-11.924133 0 -21.590546 -9.666382 -21.590546 -21.590515z" fill-rule="evenodd"/><path stroke="#000000" stroke-width="8.0" stroke-linejoin="round" stroke-linecap="butt" d="m258.76453 575.8491l0 0c0 -11.924133 9.666412 -21.590515 21.590546 -21.590515l0 0c5.726166 0 11.217804 2.2746582 15.266815 6.3236694c4.049011 4.049011 6.3237305 9.540649 6.3237305 15.266846l0 0c0 11.924133 -9.666443 21.590515 -21.590546 21.590515l0 0c-11.924133 0 -21.590546 -9.666382 -21.590546 -21.590515z" fill-rule="evenodd"/></g></svg>