<svg version="1.1" viewBox="0.0 0.0 1000.0 1000.0" fill="none" stroke="none" stroke-linecap="square" stroke-miterlimit="10" xmlns:xlink="http://www.w3.org/1999/xlink" xmlns="http://www.w3.org/2000/svg"><clipPath id="p.0"><path d="m0 0l1000.0 0l0 1000.0l-1000.0 0l0 -1000.0z" clip-rule="nonzero"/></clipPath><g clip-path="url(#p.0)"><path fill="#000000" fill-opacity="0.0" d="m0 0l1000.0 0l0 1000.0l-1000.0 0z" fill-rule="evenodd"/><path fill="#97a2a2" d="m0 500.0l0 0c0 -276.1424 223.85762 -500.0 500.0 -500.0l0 0c132.60822 0 259.78522 52.67842 353.5534 146.44661c93.76819 93.76819 146.4466 220.94514 146.4466 353.5534l0 0c0 276.1424 -223.8576 500.0 -500.0 500.0l0 0c-276.1424 0 -500.0 -223.8576 -500.0 -500.0z" fill-rule="evenodd"/><path fill="#ffffff" d="m201.59973 760.3524l297.8828 -597.67114l297.8828 597.67114z" fill-rule="evenodd"/><path stroke="#000000" stroke-width="8.0" stroke-linejoin="round" stroke-linecap="butt" d="m201.59973 760.3524l297.8828 -597.67114l297.8828 597.67114z" fill-rule="evenodd"/><path fill="#97a2a2" d="m459.42157 760.3973l40.042847 -449.93622l40.042847 449.93622z" fill-rule="evenodd"/><path stroke="#000000" stroke-width="8.0" stroke-linejoin="round" stroke-linecap="butt" d="m459.42157 760.3973l40.042847 -449.93622l40.042847 449.93622z" fill-rule="evenodd"/><path fill="#97a2a2" d="m201.63843 760.3973l297.8647 -83.20184l297.8647 83.20184z" fill-rule="evenodd"/><path stroke="#000000" stroke-width="8.0" stroke-linejoin="round" stroke-linecap="butt" d="m201.63843 760.3973l297.8647 -83.20184l297.8647 83.20184z" fill-rule="evenodd"/><path fill="#000000" fill-opacity="0.0" d="m499.5031 760.3973l298.89764 0" fill-rule="evenodd"/><path stroke="#000000" stroke-width="1.0" stroke-linejoin="round" stroke-linecap="butt" d="m499.5031 760.3973l298.89764 0" fill-rule="evenodd"/><path fill="#97a2a2" d="m201.60028 769.15796l297.8647 -83.20184l297.8647 83.20184z" fill-rule="evenodd"/><path stroke="#97a2a2" stroke-width="8.0" stroke-linejoin="round" stroke-linecap="butt" d="m201.60028 769.15796l297.8647 -83.20184l297.8647 83.20184z" fill-rule="evenodd"/><path fill="#97a2a2" d="m454.91248 837.3191l44.73456 -449.9352l44.73456 449.9352z" fill-rule="evenodd"/></g></svg>