<svg version="1.1" viewBox="0.0 0.0 1000.0 1000.0" fill="none" stroke="none" stroke-linecap="square" stroke-miterlimit="10" xmlns:xlink="http://www.w3.org/1999/xlink" xmlns="http://www.w3.org/2000/svg"><clipPath id="p.0"><path d="m0 0l1000.0 0l0 1000.0l-1000.0 0l0 -1000.0z" clip-rule="nonzero"/></clipPath><g clip-path="url(#p.0)"><path fill="#000000" fill-opacity="0.0" d="m0 0l1000.0 0l0 1000.0l-1000.0 0z" fill-rule="evenodd"/><path fill="#97a2a2" d="m0 500.0l0 0c0 -276.1424 223.85762 -500.0 500.0 -500.0l0 0c132.60822 0 259.78522 52.67842 353.5534 146.44661c93.76819 93.76819 146.4466 220.94514 146.4466 353.5534l0 0c0 276.1424 -223.8576 500.0 -500.0 500.0l0 0c-276.1424 0 -500.0 -223.8576 -500.0 -500.0z" fill-rule="evenodd"/><path fill="#ffffff" d="m192.35606 731.4058l307.1084 -531.2204l307.1084 531.2204z" fill-rule="evenodd"/><path stroke="#000000" stroke-width="8.0" stroke-linejoin="round" stroke-linecap="butt" d="m192.35606 731.4058l307.1084 -531.2204l307.1084 531.2204z" fill-rule="evenodd"/><path fill="#97a2a2" d="m458.16278 731.4457l41.28299 -399.91104l41.28299 399.91104z" fill-rule="evenodd"/><path stroke="#000000" stroke-width="8.0" stroke-linejoin="round" stroke-linecap="butt" d="m458.16278 731.4457l41.28299 -399.91104l41.28299 399.91104z" fill-rule="evenodd"/><path fill="#97a2a2" d="m192.39595 731.4457l307.08972 -73.95123l307.0897 73.95123z" fill-rule="evenodd"/><path stroke="#000000" stroke-width="8.0" stroke-linejoin="round" stroke-linecap="butt" d="m192.39595 731.4457l307.08972 -73.95123l307.0897 73.95123z" fill-rule="evenodd"/><path fill="#000000" fill-opacity="0.0" d="m499.4857 731.4457l308.15744 0" fill-rule="evenodd"/><path stroke="#000000" stroke-width="1.0" stroke-linejoin="round" stroke-linecap="butt" d="m499.4857 731.4457l308.15744 0" fill-rule="evenodd"/><path fill="#97a2a2" d="m192.35663 739.23236l307.08972 -73.951294l307.08972 73.951294z" fill-rule="evenodd"/><path stroke="#97a2a2" stroke-width="8.0" stroke-linejoin="round" stroke-linecap="butt" d="m192.35663 739.23236l307.08972 -73.951294l307.08972 73.951294z" fill-rule="evenodd"/><path fill="#97a2a2" d="m453.51404 799.8151l46.120026 -399.91016l46.120026 399.91016z" fill-rule="evenodd"/></g></svg>