<svg version="1.1" viewBox="0.0 0.0 646.5669291338583 487.78740157480314" fill="none" stroke="none" stroke-linecap="square" stroke-miterlimit="10" xmlns:xlink="http://www.w3.org/1999/xlink" xmlns="http://www.w3.org/2000/svg"><clipPath id="p.0"><path d="m0 0l646.56696 0l0 487.7874l-646.56696 0l0 -487.7874z" clip-rule="nonzero"/></clipPath><g clip-path="url(#p.0)"><path fill="#000000" fill-opacity="0.0" d="m0 0l646.56696 0l0 487.7874l-646.56696 0z" fill-rule="evenodd"/><path fill="#ffffff" d="m324.56818 -1.6376941E-4c-42.59012 0 -76.84422 11.248179 -102.762314 33.744537c-25.845291 22.496357 -38.986343 53.073933 -39.423172 91.73273l79.61078 0c0 -18.128136 5.715088 -32.470467 17.145264 -43.027016c11.50296 -10.629341 26.646118 -15.944023 45.429443 -15.944023c19.656982 0 34.54532 5.423889 44.66504 16.271637c10.192505 10.774963 15.288757 26.427765 15.288757 46.95842c0 15.507202 -4.368225 29.922333 -13.104645 43.245422c-5.6786804 8.73645 -19.183746 23.442825 -40.51523 44.11908c-21.258667 20.60347 -35.49176 39.53244 -42.69934 56.786926c-7.20755 17.254486 -10.81134 40.406067 -10.81134 69.45477l74.36893 0c0.4368286 -31.451233 7.862793 -55.36725 22.277924 -71.74811l40.296814 -39.641632c33.198456 -34.508972 49.79767 -69.56398 49.79767 -105.165016c0 -39.969254 -12.3038025 -71.09286 -36.911438 -93.370804c-24.53482 -22.277946 -58.752533 -33.41692 -102.65314 -33.41692zm-7.862793 401.98587c-13.759888 0 -24.68042 4.0042114 -32.761627 12.012634c-8.081207 7.9355774 -12.121796 18.346527 -12.121796 31.232788c0 12.012634 3.8585815 22.05954 11.575775 30.140778c7.789978 8.081207 18.892548 12.121826 33.307648 12.121826c14.415131 0 25.554077 -4.040619 33.41687 -12.121826c7.862793 -8.081238 11.794189 -18.128143 11.794189 -30.140778c0 -12.449432 -4.0405884 -22.75116 -12.121796 -30.905182c-8.081207 -8.226837 -19.110962 -12.3402405 -33.089264 -12.3402405z" fill-rule="evenodd"/></g></svg>