<svg version="1.1" viewBox="0.0 0.0 1000.0 1000.0" fill="none" stroke="none" stroke-linecap="square" stroke-miterlimit="10" xmlns:xlink="http://www.w3.org/1999/xlink" xmlns="http://www.w3.org/2000/svg"><clipPath id="p.0"><path d="m0 0l1000.0 0l0 1000.0l-1000.0 0l0 -1000.0z" clip-rule="nonzero"/></clipPath><g clip-path="url(#p.0)"><path fill="#000000" fill-opacity="0.0" d="m0 0l1000.0 0l0 1000.0l-1000.0 0z" fill-rule="evenodd"/><path fill="#97a2a2" d="m0 500.0l0 0c0 -276.1424 223.85762 -500.0 500.0 -500.0l0 0c132.60822 0 259.78522 52.67842 353.5534 146.44661c93.76819 93.76819 146.4466 220.94514 146.4466 353.5534l0 0c0 276.1424 -223.8576 500.0 -500.0 500.0l0 0c-276.1424 0 -500.0 -223.8576 -500.0 -500.0z" fill-rule="evenodd"/><path fill="#ffffff" d="m300.65463 699.4832l6.905731 -69.58673c-66.92215 -99.13147 -47.583252 -232.8825 44.677673 -308.9979c92.260925 -76.11537 227.2497 -69.68495 311.85748 14.8558655c84.60779 84.54083 91.14508 219.52448 15.102783 311.84564c-76.0423 92.32117 -209.77798 111.76593 -308.96243 44.922302z" fill-rule="evenodd"/><path stroke="#000000" stroke-width="8.0" stroke-linejoin="round" stroke-linecap="butt" d="m300.65463 699.4832l6.905731 -69.58673c-66.92215 -99.13147 -47.583252 -232.8825 44.677673 -308.9979c92.260925 -76.11537 227.2497 -69.68495 311.85748 14.8558655c84.60779 84.54083 91.14508 219.52448 15.102783 311.84564c-76.0423 92.32117 -209.77798 111.76593 -308.96243 44.922302z" fill-rule="evenodd"/></g></svg>